<?xml version="1.0" standalone="no"?>
<!DOCTYPE svg PUBLIC "-//W3C//DTD SVG 20010904//EN"
 "http://www.w3.org/TR/2001/REC-SVG-20010904/DTD/svg10.dtd">
<svg version="1.0" xmlns="http://www.w3.org/2000/svg"
 width="211.000000pt" height="239.000000pt" viewBox="0 0 211.000000 239.000000"
 preserveAspectRatio="xMidYMid meet">
<metadata>
Created by potrace 1.16, written by Peter Selinger 2001-2019
</metadata>
<g transform="translate(0.000000,239.000000) scale(0.100000,-0.100000)"
fill="#000000" stroke="none">
<path d="M585 2155 c-36 -35 -34 -86 5 -118 26 -23 30 -32 30 -79 0 -44 -6
-61 -33 -100 -19 -26 -46 -74 -61 -107 -18 -40 -37 -66 -60 -80 -50 -32 -56
-55 -56 -232 l0 -161 34 -34 c30 -30 41 -34 84 -34 l49 0 7 -42 c20 -125 128
-201 316 -223 l65 -8 -34 -14 c-51 -21 -96 -59 -117 -98 -18 -33 -21 -35 -72
-35 -66 0 -118 -21 -134 -55 -14 -31 14 -418 32 -439 8 -10 6 -21 -7 -44 -16
-28 -16 -31 0 -56 l17 -26 415 0 415 0 16 25 c14 22 14 27 0 56 -11 22 -13 36
-6 50 6 10 17 105 26 210 17 216 14 237 -41 263 -18 9 -58 16 -88 16 -45 0
-57 4 -61 18 -9 27 -76 89 -121 111 l-40 19 50 7 c189 26 291 99 311 223 l7
42 49 0 c43 0 54 4 84 34 l34 34 0 161 c0 183 -7 208 -64 235 -27 13 -41 30
-63 79 -15 34 -43 81 -60 105 -28 36 -33 50 -33 98 0 49 3 58 30 81 24 20 30
33 30 63 0 72 -85 106 -135 55 -35 -34 -33 -78 5 -117 20 -19 30 -40 30 -59 0
-35 -4 -36 -42 -3 -71 59 -198 105 -296 107 -54 2 -67 -1 -67 -13 0 -11 17
-17 67 -22 185 -18 346 -128 427 -289 28 -55 29 -64 15 -72 -8 -5 -17 -7 -18
-5 -1 1 -15 30 -31 63 -36 76 -141 182 -215 218 -59 29 -172 57 -230 57 -58 0
-165 -27 -227 -57 -75 -36 -179 -140 -217 -215 -19 -40 -34 -58 -47 -58 -16 0
-17 4 -8 28 31 81 126 200 196 243 18 11 33 27 33 35 0 23 -34 16 -70 -16 -44
-37 -50 -37 -50 -1 0 19 10 40 30 59 21 21 30 40 30 62 0 41 -39 80 -80 80
-19 0 -40 -9 -55 -25z m568 -190 c136 -29 252 -119 310 -242 l32 -68 3 -213
c4 -265 -4 -311 -62 -368 -55 -55 -129 -81 -267 -95 -138 -13 -311 1 -396 33
-75 28 -130 80 -148 141 -15 52 -13 54 36 33 19 -8 63 -19 98 -26 35 -6 71
-16 81 -23 37 -22 69 35 35 63 -12 10 -21 10 -44 1 -36 -15 -88 -7 -163 26
l-58 26 0 207 0 207 31 63 c59 117 175 207 302 235 81 18 128 18 210 0z m-583
-515 l0 -200 -24 -6 c-33 -8 -81 19 -95 55 -9 19 -12 73 -9 164 3 127 4 137
27 161 18 19 35 26 63 26 l38 0 0 -200z m1071 174 c23 -24 24 -34 27 -161 3
-91 0 -145 -9 -164 -13 -34 -59 -62 -92 -57 -22 3 -22 7 -27 201 -3 109 -3
201 -1 203 2 2 21 4 41 4 26 0 43 -7 61 -26z m-663 -763 c30 -42 80 -56 126
-37 20 8 41 26 48 40 6 15 15 26 20 26 20 0 67 -31 93 -62 l28 -33 -223 -3
c-123 -1 -225 0 -228 3 -11 11 85 95 109 95 3 0 15 -13 27 -29z m497 -131 c17
-19 17 -29 3 -216 -14 -184 -16 -198 -37 -216 -22 -17 -48 -18 -376 -18 -332
0 -354 1 -376 19 -23 18 -25 31 -40 208 -15 185 -13 217 15 235 6 4 187 8 402
8 378 0 391 -1 409 -20z m-10 -505 c0 -10 -767 -20 -793 -10 -7 3 -10 9 -7 15
9 14 800 9 800 -5z"/>
<path d="M765 1626 c-37 -17 -80 -62 -94 -99 -17 -43 -13 -127 8 -173 10 -23
34 -52 52 -65 34 -24 34 -24 319 -24 283 0 285 0 318 23 18 13 41 41 52 62 24
46 27 135 6 183 -16 39 -61 82 -99 96 -44 17 -524 14 -562 -3z"/>
<path d="M1018 594 c-57 -30 -65 -98 -19 -145 74 -73 191 6 151 102 -13 31
-55 59 -87 59 -10 -1 -30 -7 -45 -16z"/>
</g>
</svg>
